<svg width="31" height="40" viewBox="0 0 31 40" fill="none" xmlns="http://www.w3.org/2000/svg">
<rect x="4.28395" y="7" width="19.5802" height="26" rx="1" fill="#581414"/>
<rect x="4.60493" y="7.64209" width="18.6173" height="24.3951" fill="#CBCBCB"/>
<g filter="url(#filter0_d_1316_31)">
<rect x="3" y="7" width="17.3333" height="26" rx="1" fill="#581414"/>
</g>
<path fill-rule="evenodd" clip-rule="evenodd" d="M6.20988 20.1604C7.00306 17.9164 9.14322 16.3086 11.6589 16.3086C14.1745 16.3086 16.3147 17.9164 17.1079 20.1604C16.3147 22.4045 14.1745 24.0122 11.6589 24.0122C9.14322 24.0122 7.00306 22.4045 6.20988 20.1604ZM6.84409 20.0304C7.54438 18.0491 9.43392 16.6296 11.655 16.6296C13.8761 16.6296 15.7656 18.0491 16.4659 20.0304C15.7656 22.0116 13.8761 23.4311 11.655 23.4311C9.43392 23.4311 7.54438 22.0116 6.84409 20.0304Z" fill="#DECC27"/>
<path fill-rule="evenodd" clip-rule="evenodd" d="M14.5556 20.1604C14.5556 21.7559 13.2622 23.0493 11.6667 23.0493C10.0712 23.0493 8.77779 21.7559 8.77779 20.1604C8.77779 18.5649 10.0712 17.2715 11.6667 17.2715C13.2622 17.2715 14.5556 18.5649 14.5556 20.1604ZM13.2716 18.8764C13.2716 19.2309 12.9842 19.5184 12.6296 19.5184C12.2751 19.5184 11.9877 19.2309 11.9877 18.8764C11.9877 18.5218 12.2751 18.2344 12.6296 18.2344C12.9842 18.2344 13.2716 18.5218 13.2716 18.8764ZM13.5926 20.8023C13.7699 20.8023 13.9136 20.6586 13.9136 20.4814C13.9136 20.3041 13.7699 20.1604 13.5926 20.1604C13.4153 20.1604 13.2716 20.3041 13.2716 20.4814C13.2716 20.6586 13.4153 20.8023 13.5926 20.8023Z" fill="#DECC27"/>
<defs>
<filter id="filter0_d_1316_31" x="0.9" y="0.9" width="29.5333" height="38.2" filterUnits="userSpaceOnUse" color-interpolation-filters="sRGB">
<feFlood flood-opacity="0" result="BackgroundImageFix"/>
<feColorMatrix in="SourceAlpha" type="matrix" values="0 0 0 0 0 0 0 0 0 0 0 0 0 0 0 0 0 0 127 0" result="hardAlpha"/>
<feOffset dx="4"/>
<feGaussianBlur stdDeviation="3.05"/>
<feComposite in2="hardAlpha" operator="out"/>
<feColorMatrix type="matrix" values="0 0 0 0 0 0 0 0 0 0 0 0 0 0 0 0 0 0 0.25 0"/>
<feBlend mode="normal" in2="BackgroundImageFix" result="effect1_dropShadow_1316_31"/>
<feBlend mode="normal" in="SourceGraphic" in2="effect1_dropShadow_1316_31" result="shape"/>
</filter>
</defs>
</svg>
