<svg width="27" height="26" viewBox="0 0 27 26" fill="none" xmlns="http://www.w3.org/2000/svg">
<ellipse cx="13.3095" cy="10.5239" rx="8.35714" ry="8.35714" fill="#FFD700"/>
<rect x="4.95238" width="16.7143" height="10.5238" fill="#FFD700"/>
<rect x="11.7619" y="17.3333" width="3.09524" height="3.09524" fill="#FFD700"/>
<rect x="12.0714" y="20.4285" width="2.47619" height="4.02381" fill="#FFD700"/>
<rect x="9.59524" y="24.4524" width="7.42857" height="1.54762" fill="#FFD700"/>
<path fill-rule="evenodd" clip-rule="evenodd" d="M4.95238 13.3095C7.68751 13.3095 9.90476 11.0923 9.90476 8.35717C9.90476 5.62204 7.68751 3.40479 4.95238 3.40479C2.21726 3.40479 0 5.62204 0 8.35717C0 11.0923 2.21726 13.3095 4.95238 13.3095ZM4.95238 12.381C7.17467 12.381 8.97619 10.5794 8.97619 8.35714C8.97619 6.13485 7.17467 4.33333 4.95238 4.33333C2.73009 4.33333 0.928571 6.13485 0.928571 8.35714C0.928571 10.5794 2.73009 12.381 4.95238 12.381Z" fill="#FFD700"/>
<path fill-rule="evenodd" clip-rule="evenodd" d="M21.9762 13.3095C24.7113 13.3095 26.9286 11.0923 26.9286 8.35717C26.9286 5.62204 24.7113 3.40479 21.9762 3.40479C19.2411 3.40479 17.0238 5.62204 17.0238 8.35717C17.0238 11.0923 19.2411 13.3095 21.9762 13.3095ZM21.9762 12.381C24.1985 12.381 26 10.5794 26 8.35714C26 6.13485 24.1985 4.33333 21.9762 4.33333C19.7539 4.33333 17.9524 6.13485 17.9524 8.35714C17.9524 10.5794 19.7539 12.381 21.9762 12.381Z" fill="#FFD700"/>
</svg>
